<svg width="22" height="20" viewBox="0 0 22 20" fill="none" xmlns="http://www.w3.org/2000/svg">
<path d="M0.781251 13.7372C1.02767 14.0163 1.33066 14.2399 1.67009 14.3929C2.00953 14.546 2.37765 14.6251 2.75 14.625L7.625 14.625L7.625 15.75C7.62624 16.8436 8.06124 17.8921 8.83455 18.6654C9.60787 19.4388 10.6564 19.8738 11.75 19.875C11.9588 19.875 12.1636 19.8168 12.3412 19.707C12.5189 19.5973 12.6625 19.4402 12.7559 19.2534L16.1956 12.375L20 12.375C20.4973 12.375 20.9742 12.1775 21.3258 11.8258C21.6775 11.4742 21.875 10.9973 21.875 10.5L21.875 2.25C21.875 1.75272 21.6775 1.27581 21.3258 0.924175C20.9742 0.572544 20.4973 0.375 20 0.375L3.875 0.374998C3.23522 0.375094 2.61749 0.608841 2.13791 1.03232C1.65833 1.45579 1.34991 2.03983 1.27063 2.67468L0.145627 11.6747C0.0993449 12.0439 0.132083 12.4187 0.241667 12.7743C0.351252 13.1299 0.535178 13.4581 0.781251 13.7372ZM19.625 10.125L16.625 10.125L16.625 2.625L19.625 2.625L19.625 10.125ZM2.375 11.9531L3.5 2.95312C3.51148 2.862 3.556 2.77825 3.62512 2.71777C3.69424 2.65729 3.78316 2.62428 3.875 2.625L14.375 2.625L14.375 10.9847L11.1106 17.5125C10.7486 17.3812 10.4358 17.1416 10.2147 16.8262C9.99363 16.5109 9.87503 16.1351 9.875 15.75L9.875 13.5C9.875 13.2016 9.75647 12.9155 9.54549 12.7045C9.33452 12.4935 9.04837 12.375 8.75 12.375L2.75 12.375C2.69655 12.3754 2.64363 12.3644 2.59478 12.3427C2.54593 12.321 2.50229 12.2891 2.46678 12.2491C2.43127 12.2092 2.40471 12.1621 2.38888 12.1111C2.37305 12.06 2.36832 12.0062 2.375 11.9531Z" fill="#E51D1D"/>
</svg>
